<svg width="31" height="30" viewBox="0 0 31 30" fill="none" xmlns="http://www.w3.org/2000/svg">
<rect x="0.5" width="30" height="30" rx="15" fill="#2AABEE" style="fill:#2AABEE;fill:color(display-p3 0.1647 0.6706 0.9333);fill-opacity:1;"/>
<g clip-path="url(#clip0_61_405)">
<path d="M8.46154 14.9949C12.221 13.3576 14.7266 12.2781 15.9804 11.7566C19.5604 10.2674 20.3047 10.0087 20.7894 10.0001C20.8963 9.99827 21.1348 10.0247 21.2894 10.1502C21.4192 10.2559 21.4554 10.3989 21.4726 10.4992C21.4898 10.5996 21.5108 10.8282 21.4936 11.0067C21.3009 13.0452 20.4612 17.9921 20.0337 20.2754C19.8524 21.2414 19.4975 21.5653 19.1521 21.5969C18.404 21.6658 17.8353 21.1023 17.1101 20.6271C15.9766 19.8831 15.3354 19.4203 14.2324 18.6945C12.9595 17.8557 13.7858 17.3946 14.511 16.6412C14.6999 16.444 17.9994 13.4436 18.0624 13.1715C18.0719 13.1375 18.0796 13.0106 18.0032 12.9437C17.9269 12.8766 17.8162 12.8996 17.736 12.9177C17.6235 12.9435 15.8105 14.1416 12.2992 16.5119C11.7839 16.8652 11.3183 17.0375 10.9004 17.0284C10.4405 17.0185 9.55502 16.7681 8.89665 16.5542C8.08942 16.2917 7.4463 16.1529 7.50355 15.7072C7.53217 15.4751 7.85278 15.2376 8.46154 14.9949Z" fill="white" style="fill:white;fill:white;fill-opacity:1;"/>
</g>
<defs>
<clipPath id="clip0_61_405">
<rect width="16" height="16" fill="white" style="fill:white;fill:white;fill-opacity:1;" transform="translate(7.5 7)"/>
</clipPath>
</defs>
</svg>
