<svg width="31" height="30" viewBox="0 0 31 30" fill="none" xmlns="http://www.w3.org/2000/svg">
<rect x="0.333496" width="30" height="30" rx="15" fill="#DD1829"/>
<g opacity="0.9">
<path d="M21.7177 11.4877C21.5644 10.9023 21.112 10.4413 20.5391 10.2851C19.4989 10 15.3293 10 15.3293 10C15.3293 10 11.1596 10 10.1194 10.2836C9.54504 10.4398 9.09415 10.9008 8.94087 11.4862C8.6626 12.5478 8.6626 14.7619 8.6626 14.7619C8.6626 14.7619 8.6626 16.976 8.94087 18.0361C9.09415 18.6215 9.54653 19.0825 10.1194 19.2387C11.1596 19.5238 15.3293 19.5238 15.3293 19.5238C15.3293 19.5238 19.4989 19.5238 20.5391 19.2387C21.1135 19.0825 21.5644 18.6215 21.7177 18.0361C21.9959 16.976 21.9959 14.7619 21.9959 14.7619C21.9959 14.7619 21.9959 12.5478 21.7177 11.4877ZM14.0049 16.7941V12.7298L17.4572 14.7467L14.0049 16.7941Z" fill="white"/>
<path d="M14.0049 16.7941V12.7298L17.4573 14.7468L14.0049 16.7941Z" fill="#DD1829"/>
</g>
</svg>
